<svg id="barcode" xmlns="http://www.w3.org/2000/svg" width="33.75" height="28.687" viewBox="0 0 33.75 28.687">
  <g id="Grupo_5" data-name="Grupo 5">
    <path id="Caminho_56" data-name="Caminho 56" d="M1.125,32.625h33.75V3.938H1.125ZM3.375,6.188h29.25V30.376H3.375Z" transform="translate(-1.125 -3.938)" fill="#fff"/>
    <path id="Caminho_57" data-name="Caminho 57" d="M5.625,9h2.25V27H5.625Z" transform="translate(-1.125 -3.938)" fill="#fff"/>
    <path id="Caminho_58" data-name="Caminho 58" d="M10.125,9h2.25V22.5h-2.25Z" transform="translate(-1.125 -3.938)" fill="#fff"/>
    <path id="Caminho_59" data-name="Caminho 59" d="M14.625,9h2.25V27h-2.25Z" transform="translate(-1.125 -3.938)" fill="#fff"/>
    <path id="Caminho_60" data-name="Caminho 60" d="M19.125,9h2.25V22.5h-2.25Z" transform="translate(-1.125 -3.938)" fill="#fff"/>
    <path id="Caminho_61" data-name="Caminho 61" d="M23.625,9h2.25V22.5h-2.25Z" transform="translate(-1.125 -3.938)" fill="#fff"/>
    <path id="Caminho_62" data-name="Caminho 62" d="M28.125,9h2.25V27h-2.25Z" transform="translate(-1.125 -3.938)" fill="#fff"/>
    <path id="Caminho_63" data-name="Caminho 63" d="M10.125,24.75h2.25V27h-2.25Z" transform="translate(-1.125 -3.938)" fill="#fff"/>
    <path id="Caminho_64" data-name="Caminho 64" d="M19.125,24.75h2.25V27h-2.25Z" transform="translate(-1.125 -3.938)" fill="#fff"/>
    <path id="Caminho_65" data-name="Caminho 65" d="M23.625,24.75h2.25V27h-2.25Z" transform="translate(-1.125 -3.938)" fill="#fff"/>
  </g>
</svg>
