<svg xmlns="http://www.w3.org/2000/svg" width="26.772" height="20.079" viewBox="0 0 26.772 20.079">
  <g id="credit-card-2-back" transform="translate(0 -4.5)">
    <path id="Caminho_68" data-name="Caminho 68" d="M23.426,6.173H3.347A1.673,1.673,0,0,0,1.673,7.847V21.233a1.673,1.673,0,0,0,1.673,1.673H23.426A1.673,1.673,0,0,0,25.1,21.233V7.847A1.673,1.673,0,0,0,23.426,6.173ZM3.347,4.5A3.347,3.347,0,0,0,0,7.847V21.233a3.347,3.347,0,0,0,3.347,3.347H23.426a3.347,3.347,0,0,0,3.347-3.347V7.847A3.347,3.347,0,0,0,23.426,4.5Z" fill-rule="evenodd"/>
    <path id="Caminho_69" data-name="Caminho 69" d="M18.983,12.087a.837.837,0,0,1,.837-.837h3.347a.837.837,0,0,1,.837.837V13.76a.837.837,0,0,1-.837.837H19.819a.837.837,0,0,1-.837-.837ZM2.25,17.943H25.676V21.29H2.25Z" transform="translate(-0.577 -1.73)"/>
  </g>
</svg>
