<svg xmlns="http://www.w3.org/2000/svg" width="22.72" height="23.502" viewBox="0 0 22.72 23.502">
  <path id="moneybag" d="M16.662,23.478q-1.065.023-5.3.024t-5.3-.024a25.958,25.958,0,0,1-4.533-.4Q0,22.745,0,21.964a7.876,7.876,0,0,1,.473-1.9q.473-1.432,1.041-3.006a31.934,31.934,0,0,0,1.041-3.621,16.2,16.2,0,0,0,.473-3.586Q3.029,5.3,11.36,5.3t8.331,4.544a16.194,16.194,0,0,0,.473,3.585,31.934,31.934,0,0,0,1.041,3.621q.568,1.574,1.041,3.006a7.875,7.875,0,0,1,.473,1.9q0,.781-1.526,1.112A25.884,25.884,0,0,1,16.662,23.478ZM11.36,10.6a8.187,8.187,0,0,1,2.686.379q1.077.379,1.1,1.112v.024a.757.757,0,0,0,1.515,0q0-2.769-4.544-3.006V8.331a.757.757,0,0,0-1.515,0v.781q-4.544.237-4.544,3.006a2.381,2.381,0,0,0,.154.9,1.429,1.429,0,0,0,.5.627,3.206,3.206,0,0,0,.746.4,4.384,4.384,0,0,0,1.065.225q.662.071,1.278.095t1.562.024a8.039,8.039,0,0,1,2.71.39q1.077.39,1.077,1.125T14.07,17.029a8.085,8.085,0,0,1-2.709.39,8.187,8.187,0,0,1-2.686-.379q-1.077-.379-1.1-1.112V15.9a.757.757,0,0,0-1.515,0q0,2.769,4.544,3.006v.781a.757.757,0,0,0,1.515,0V18.91q4.544-.237,4.544-3.006,0-3.029-5.3-3.029-.332,0-.828.012t-.8.024q-.308.012-.686,0a3.845,3.845,0,0,1-.616-.059,2.723,2.723,0,0,1-.45-.13.6.6,0,0,1-.307-.237.681.681,0,0,1-.095-.367q0-.734,1.089-1.124A8.065,8.065,0,0,1,11.36,10.6Zm0-6.816a21.907,21.907,0,0,0-2.6.142A18.932,18.932,0,0,1,7.917,2,4.722,4.722,0,0,1,7.573.757q0-.379.616-.757A5.41,5.41,0,0,0,9.632.544,7.3,7.3,0,0,0,11.36.757,7.3,7.3,0,0,0,13.088.544,5.41,5.41,0,0,0,14.532,0q.616.379.616.757A4.724,4.724,0,0,1,14.8,2a18.932,18.932,0,0,1-.84,1.929,21.907,21.907,0,0,0-2.6-.142Z"/>
</svg>
