<svg xmlns="http://www.w3.org/2000/svg" width="28" height="19" viewBox="0 0 28 19">
  <path id="money" d="M5.8,7.5H28.2A2.758,2.758,0,0,1,31,10.214V23.786A2.758,2.758,0,0,1,28.2,26.5H5.8A2.758,2.758,0,0,1,3,23.786V10.214A2.758,2.758,0,0,1,5.8,7.5Zm19.6,2.714H8.6a2.758,2.758,0,0,1-2.8,2.714v8.143a2.758,2.758,0,0,1,2.8,2.714H25.4a2.758,2.758,0,0,1,2.8-2.714V12.929a2.758,2.758,0,0,1-2.8-2.714Zm-14,2.714h2.8v8.143H11.4Zm8.4,5.429A1.358,1.358,0,1,0,18.4,17,1.379,1.379,0,0,0,19.8,18.357Zm0,2.714A4.073,4.073,0,1,1,24,17,4.137,4.137,0,0,1,19.8,21.071Z" transform="translate(-3 -7.5)" fill="#80abfe"/>
</svg>
