<svg xmlns="http://www.w3.org/2000/svg" width="18.894" height="21.445" viewBox="0 0 18.894 21.445">
  <g id="shopping-bag-solid" transform="translate(-4 -2.22)">
    <path id="Caminho_72" data-name="Caminho 72" d="M12.35,6.944a3.374,3.374,0,1,1,6.748,0V8.82h1.35V6.944a4.724,4.724,0,1,0-9.447,0V8.82h1.35Z" transform="translate(-2.276 0)"/>
    <path id="Caminho_73" data-name="Caminho 73" d="M18.171,12v2.092a.675.675,0,1,1-1.35,0V12H10.073v2.092a.675.675,0,1,1-1.35,0V12H4V25.5a1.35,1.35,0,0,0,1.35,1.35h16.2a1.35,1.35,0,0,0,1.35-1.35V12Z" transform="translate(0 -3.18)"/>
  </g>
</svg>
